<?xml version="1.0" encoding="utf-8"?>
<!-- Generator: Adobe Illustrator 24.0.1, SVG Export Plug-In . SVG Version: 6.00 Build 0)  -->
<svg version="1.1" id="Layer_1" xmlns="http://www.w3.org/2000/svg" xmlns:xlink="http://www.w3.org/1999/xlink" x="0px" y="0px"
	 viewBox="0 0 360 360" style="enable-background:new 0 0 360 360;" xml:space="preserve">
<style type="text/css">
	.st0{fill:#4392F1;}
	.st1{fill:#DC493A;}
	.st2{fill:#B7FFBE;}
</style>
<g>
	<path d="M55.4,107.2c-1-7.34-0.42-14.26,1.75-20.77c2.17-6.51,5.42-12.18,9.76-17.02c4.34-4.84,9.59-8.68,15.77-11.51
		c6.17-3,12.76-4.5,19.77-4.5c6.17,0,12.01,1.17,17.52,3.5c5.51,2.17,10.34,5.17,14.51,9.01c4.34,3.84,7.84,8.43,10.51,13.76
		c2.84,5.34,4.5,11.18,5.01,17.52c0.33,6.01-0.42,11.85-2.25,17.52c-1.67,5.51-4.17,10.43-7.51,14.76L151,140.48
		c4.34,4,9.09,7.09,14.26,9.26c5.17,2,10.51,3,16.02,3c5.51,0,10.84-1,16.02-3c5.34-2.17,10.01-5.26,14.01-9.26l10.51-10.51
		c-3.84-4.84-6.67-10.34-8.51-16.52s-2.17-12.76-1-19.77c0.83-5.84,2.67-11.18,5.51-16.02c2.84-5.01,6.34-9.26,10.51-12.76
		c4.17-3.67,8.93-6.51,14.26-8.51c5.34-2.17,10.84-3.25,16.52-3.25c7.17,0,13.85,1.5,20.02,4.5c6.34,3,11.68,7.01,16.02,12.01
		c4.5,5.01,7.76,10.93,9.76,17.77c2,6.67,2.42,13.76,1.25,21.27c-0.84,5.67-2.67,11.01-5.51,16.02c-2.84,4.84-6.34,9.01-10.51,12.51
		c-4.17,3.5-8.84,6.26-14.01,8.26c-5.17,2-10.68,3-16.52,3c-5.67,0-11.01-0.83-16.02-2.5c-5.01-1.84-9.51-4.34-13.51-7.51
		l-10.26,10.26c-4.17,4.17-7.26,8.93-9.26,14.26c-2,5.17-3,10.51-3,16.02c0,5.51,1,10.84,3,16.02s5.09,9.84,9.26,14.01l10.76,10.76
		c4.17-2.84,8.68-5.09,13.51-6.76c4.84-1.83,9.93-2.75,15.27-2.75c6.51,0,12.68,1.25,18.52,3.75c5.84,2.5,10.84,5.92,15.02,10.26
		c4.34,4.34,7.76,9.43,10.26,15.27c2.5,5.67,3.75,11.84,3.75,18.52c0,6.51-1.25,12.68-3.75,18.52c-2.5,5.67-5.92,10.68-10.26,15.02
		c-4.17,4.17-9.18,7.51-15.02,10.01c-5.84,2.5-12.01,3.75-18.52,3.75c-6.51,0-12.68-1.25-18.52-3.75
		c-5.84-2.5-10.93-5.84-15.27-10.01c-4.17-4.34-7.51-9.34-10.01-15.02c-2.5-5.84-3.75-12.01-3.75-18.52
		c0-5.67,0.92-11.01,2.75-16.02c1.84-5.17,4.34-9.76,7.51-13.76l-10.76-10.51c-4-4.34-8.68-7.51-14.01-9.51
		c-5.17-2.17-10.51-3.25-16.02-3.25c-5.51,0-10.84,1.08-16.02,3.25c-5.17,2-9.93,5.17-14.26,9.51l-11.01,10.76
		c6.67,8.51,10.01,18.35,10.01,29.53c0,6.51-1.25,12.68-3.75,18.52c-2.5,5.67-5.92,10.68-10.26,15.02
		c-4.17,4.17-9.18,7.51-15.02,10.01c-5.67,2.5-11.76,3.75-18.27,3.75c-6.51,0-12.68-1.25-18.52-3.75
		c-5.84-2.5-10.93-5.84-15.27-10.01c-4.34-4.34-7.76-9.34-10.26-15.02c-2.5-5.84-3.75-12.01-3.75-18.52
		c0-6.67,1.25-12.85,3.75-18.52c2.5-5.84,5.92-10.93,10.26-15.27c4.34-4.34,9.43-7.76,15.27-10.26c5.84-2.5,12.01-3.75,18.52-3.75
		c5.34,0,10.43,0.92,15.27,2.75c5.01,1.67,9.51,4.09,13.51,7.26l11.26-11.26c4.17-4.17,7.26-8.84,9.26-14.01
		c2.17-5.17,3.25-10.51,3.25-16.02c0-5.51-1.08-10.84-3.25-16.02c-2-5.34-5.09-10.09-9.26-14.26l-10.76-10.51
		c-4,3.34-8.51,5.92-13.51,7.76c-5.01,1.67-10.26,2.5-15.77,2.5c-6.01,0-11.68-1-17.02-3c-5.34-2.17-10.18-5.09-14.51-8.76
		c-4.17-3.67-7.67-8.01-10.51-13.01C57.99,118.54,56.24,113.04,55.4,107.2z"/>
	<circle class="st0" cx="102.53" cy="258.75" r="34.31"/>
	<circle class="st1" cx="259.95" cy="101.33" r="34.31"/>
	<circle class="st2" cx="102.53" cy="101.33" r="34.31"/>
</g>
</svg>
